<?xml version="1.0" encoding="UTF-8"?>
<svg width="446px" height="446px" viewBox="0 0 446 446" version="1.1" xmlns="http://www.w3.org/2000/svg" xmlns:xlink="http://www.w3.org/1999/xlink">
    <!-- Generator: Sketch 59.1 (86144) - https://sketch.com -->
    <title>logo</title>
    <desc>Created with Sketch.</desc>
    <defs>
        <polygon id="path-1" points="0.660922026 -1.22213351e-12 187.053788 -1.22213351e-12 206.332568 316.776023 19.939702 316.776023"></polygon>
        <radialGradient cx="19.5343447%" cy="21.6361556%" fx="19.5343447%" fy="21.6361556%" r="88.2482791%" gradientTransform="translate(0.195343,0.216362),scale(0.878354,1.000000),rotate(48.058986),translate(-0.195343,-0.216362)" id="radialGradient-3">
            <stop stop-color="#000000" offset="0%"></stop>
            <stop stop-color="#131313" offset="79.0655749%"></stop>
            <stop stop-color="#555555" offset="100%"></stop>
        </radialGradient>
        <polygon id="path-4" points="3.53167342 0 234.571032 0 231.084612 346.203304 0.0452533545 346.203304"></polygon>
        <radialGradient cx="1.76914653%" cy="41.1446795%" fx="1.76914653%" fy="41.1446795%" r="77.428338%" gradientTransform="translate(0.017691,0.411447),scale(0.807687,1.000000),rotate(90.874511),translate(-0.017691,-0.411447)" id="radialGradient-6">
            <stop stop-color="#FFFFFF" offset="0.0365357899%"></stop>
            <stop stop-color="#FFFFFF" offset="62.6900338%"></stop>
            <stop stop-color="#B9B9B9" offset="89.0989268%"></stop>
            <stop stop-color="#434343" offset="100%"></stop>
        </radialGradient>
    </defs>
    <g id="logo" stroke="none" stroke-width="1" fill="none" fill-rule="evenodd">
        <g id="logo-back" transform="translate(-14.000000, -12.000000)">
            <rect id="Rectangle" fill="#4C6B58" x="14" y="12" width="446" height="446" rx="20"></rect>
            <g id="logo" transform="translate(34.000000, 32.000000)" stroke-width="1">
                <g id="Group" transform="translate(215.015128, 203.760144) rotate(10.000000) translate(-215.015128, -203.760144) translate(27.678784, 30.300620)">
                    <g id="Combined-Shape-Copy" transform="translate(271.144902, 187.866567) scale(-1, 1) translate(-271.144902, -187.866567) translate(167.770184, 29.427281)">
                        <mask id="mask-2" fill="white">
                            <use xlink:href="#path-1"></use>
                        </mask>
                        <g id="Mask"></g>
                        <path d="M228.621822,-5.11320933 C315.331354,-4.94240106 385.970625,63.6317926 386.406776,148.023735 C386.79382,225.657224 327.623627,289.956485 250.634247,299.952313 L249.520702,300.087556 L249.280002,300.210288 C228.724874,310.446677 205.63163,316.359214 181.195203,316.754803 L178.571929,316.776023 C90.9617691,316.776023 19.939702,245.863295 19.939702,158.388011 C19.939702,85.1263773 69.7564985,23.4821667 137.412645,5.38359654 C149.867438,2.50479208 162.124133,3.01137266 162.755947,5.76545454 C163.130629,7.39870025 161.637709,8.99333183 159.122069,10.6412542 C155.650663,12.3175585 152.25477,14.1189818 148.938297,16.0371386 L148.8866,16.0683017 L148.8866,16.0683017 C102.834077,42.7261585 72.109077,91.8990069 72.3883342,148.189155 C72.8244847,232.982218 143.463756,301.538536 230.173288,301.301146 C236.242955,301.282735 242.230475,300.929326 248.117461,300.258963 L249.520702,300.087556 L251.47257,299.097041 C302.403343,272.737756 337.204155,219.62071 337.204155,158.388011 C337.204155,76.3042994 274.667224,8.80438396 194.569786,0.795449067 C194.777054,0.237782213 194.870618,-0.32334824 194.840097,-0.882856193 C194.827103,-1.12107041 194.779955,-1.34905025 194.700238,-1.56702207 C205.613858,-3.90963212 216.966381,-5.13293224 228.621822,-5.11320933 Z" id="Combined-Shape" fill="url(#radialGradient-3)" mask="url(#mask-2)"></path>
                    </g>
                    <g id="Combined-Shape">
                        <mask id="mask-5" fill="white">
                            <use xlink:href="#path-4"></use>
                        </mask>
                        <g id="Mask"></g>
                        <path d="M192.25857,346.203304 C294.130848,346.203304 376.714647,268.703054 376.714647,173.101652 C376.714647,77.5002494 294.130848,0 192.25857,0 C90.386291,0 7.80249208,77.5002494 7.80249208,173.101652 C7.80249208,268.703054 90.386291,346.203304 192.25857,346.203304 Z M247.012515,343.21264 C348.884794,344.864338 433.66367,268.703054 436.371434,173.101652 C439.079198,77.5002494 358.690475,1.3389659 256.818197,2.99066403 C154.945918,4.64236217 70.1670427,80.8036457 67.4592786,173.101652 C64.7515144,265.399658 145.140237,341.560942 247.012515,343.21264 Z" fill="url(#radialGradient-6)" mask="url(#mask-5)"></path>
                    </g>
                </g>
            </g>
        </g>
    </g>
</svg>